<svg width="27" height="28" viewBox="0 0 27 28" fill="none" xmlns="http://www.w3.org/2000/svg">
<g id="Calque_1" clip-path="url(#clip0_564_18902)">
<path id="Vector" d="M20.1345 18.6742C20.1345 18.6742 20.1224 18.6742 20.1164 18.6742C19.9598 18.6662 19.8232 18.5678 19.769 18.4192L18.9537 16.2002C18.8794 15.9993 18.9838 15.7744 19.1846 15.7021C19.3874 15.6278 19.6103 15.7323 19.6826 15.9331L20.1766 17.2806L21.3815 14.7221C21.4719 14.5273 21.7049 14.445 21.8976 14.5374C22.0924 14.6278 22.1748 14.8607 22.0824 15.0535L20.4799 18.4533C20.4156 18.5899 20.2791 18.6762 20.1284 18.6762L20.1345 18.6742Z" fill="#3298EB"/>
<path id="Vector_2" d="M20.2874 20.7564C18.96 20.7564 17.743 20.1439 16.9437 19.0755C16.3975 18.3466 16.1104 17.483 16.1104 16.5794C16.1104 14.276 17.984 12.4023 20.2874 12.4023C21.0746 12.4023 21.8437 12.6253 22.5144 13.049C23.7354 13.8201 24.4644 15.1415 24.4644 16.5794C24.4644 18.8827 22.5908 20.7564 20.2874 20.7564ZM20.2874 13.1795C18.4117 13.1795 16.8875 14.7057 16.8875 16.5794C16.8875 17.3144 17.1225 18.0172 17.5663 18.6116C18.2169 19.4812 19.209 19.9812 20.2874 19.9812C22.163 19.9812 23.6872 18.455 23.6872 16.5814C23.6872 15.4106 23.0928 14.3362 22.0987 13.7077C21.5545 13.3643 20.928 13.1815 20.2874 13.1815V13.1795Z" fill="#3298EB"/>
<path id="Vector_3" d="M20.0262 27.5H0.653259C0.438384 27.5 0.263672 27.3253 0.263672 27.1124V0.887579C0.263672 0.674712 0.438384 0.5 0.653259 0.5H16.8874C17.1023 0.5 17.275 0.674712 17.275 0.887579V3.6408H20.0282C20.2431 3.6408 20.4178 3.81551 20.4178 4.03038V9.54686C20.4178 9.76173 20.2431 9.93645 20.0282 9.93645H14.1342V17.5916C14.1342 21.0738 19.9539 24.0399 20.2029 24.1644C20.3334 24.2307 20.4178 24.3652 20.4178 24.5118V27.1124C20.4178 27.3273 20.2431 27.5 20.0282 27.5H20.0262ZM1.04084 26.7228H19.6386V24.7468C18.3935 24.0901 13.357 21.2044 13.357 17.5896V9.54485C13.357 9.32997 13.5317 9.15727 13.7466 9.15727H19.6406V4.41796H16.8874C16.6725 4.41796 16.4978 4.24325 16.4978 4.03038V1.27717H1.04084V26.7228Z" fill="#3298EB"/>
<path id="Vector_4" d="M20.0467 24.9093C19.9904 24.9093 19.9362 24.8973 19.884 24.8732C19.88 24.8712 19.8559 24.8591 19.8519 24.8571C19.1892 24.5238 13.3574 21.4814 13.3574 17.5915V9.54676C13.3574 9.33188 13.5321 9.15918 13.747 9.15918H26.3483C26.5632 9.15918 26.7379 9.33389 26.7379 9.54676V17.5915C26.7379 21.6139 20.4865 24.7387 20.2194 24.8692C20.1652 24.8953 20.1069 24.9093 20.0467 24.9093ZM14.1346 9.93635V17.5915C14.1346 20.8006 19.0767 23.5719 20.0467 24.084C21.0367 23.5599 25.9588 20.7926 25.9588 17.5915V9.93635H14.1346Z" fill="#3298EB"/>
<path id="Vector_5" d="M20.0265 4.41784H16.8857C16.6708 4.41784 16.4961 4.24313 16.4961 4.03026V0.887457C16.4961 0.730819 16.5905 0.588238 16.7351 0.527992C16.8797 0.467747 17.0483 0.501886 17.1588 0.612336L20.2996 3.75313C20.41 3.86358 20.4442 4.03227 20.3839 4.17686C20.3237 4.32145 20.1811 4.41583 20.0245 4.41583L20.0265 4.41784ZM17.2733 3.64067H19.0887L17.2733 1.82729V3.64067Z" fill="#3298EB"/>
<path id="Vector_6" d="M10.8532 5.54474H4.27039C4.05552 5.54474 3.88281 5.37003 3.88281 5.15717C3.88281 4.9443 4.05752 4.76758 4.27039 4.76758H10.8532C11.0681 4.76758 11.2408 4.94229 11.2408 5.15717C11.2408 5.37204 11.0661 5.54474 10.8532 5.54474Z" fill="#3298EB"/>
<path id="Vector_7" d="M10.8532 9.1111H4.27039C4.05552 9.1111 3.88281 8.93638 3.88281 8.72352C3.88281 8.51065 4.05752 8.33594 4.27039 8.33594H10.8532C11.0681 8.33594 11.2408 8.51065 11.2408 8.72352C11.2408 8.93638 11.0661 9.1111 10.8532 9.1111Z" fill="#3298EB"/>
<path id="Vector_8" d="M10.8532 12.6795H4.27039C4.05552 12.6795 3.88281 12.5047 3.88281 12.2919C3.88281 12.079 4.05752 11.9043 4.27039 11.9043H10.8532C11.0681 11.9043 11.2408 12.079 11.2408 12.2919C11.2408 12.5047 11.0661 12.6795 10.8532 12.6795Z" fill="#3298EB"/>
<path id="Vector_9" d="M10.8532 16.2459H4.27039C4.05552 16.2459 3.88281 16.0712 3.88281 15.8583C3.88281 15.6455 4.05752 15.4688 4.27039 15.4688H10.8532C11.0681 15.4688 11.2408 15.6435 11.2408 15.8583C11.2408 16.0732 11.0661 16.2459 10.8532 16.2459Z" fill="#3298EB"/>
<path id="Vector_10" d="M10.8532 19.8128H4.27039C4.05552 19.8128 3.88281 19.638 3.88281 19.4252C3.88281 19.2123 4.05752 19.0376 4.27039 19.0376H10.8532C11.0681 19.0376 11.2408 19.2123 11.2408 19.4252C11.2408 19.638 11.0661 19.8128 10.8532 19.8128Z" fill="#3298EB"/>
<path id="Vector_11" d="M10.8532 23.3812H4.27039C4.05552 23.3812 3.88281 23.2065 3.88281 22.9916C3.88281 22.7767 4.05752 22.604 4.27039 22.604H10.8532C11.0681 22.604 11.2408 22.7787 11.2408 22.9916C11.2408 23.2045 11.0661 23.3812 10.8532 23.3812Z" fill="#3298EB"/>
</g>
<defs>
<clipPath id="clip0_564_18902">
<rect width="26.4719" height="27" fill="white" transform="translate(0.263672 0.5)"/>
</clipPath>
</defs>
</svg>
