<svg width="25" height="24" viewBox="0 0 25 24" fill="none" xmlns="http://www.w3.org/2000/svg">
<path d="M19.57 4.93L18.16 6.34C19.6 7.79 20.5 9.79 20.5 12C20.5 16.42 16.92 20 12.5 20C8.08 20 4.5 16.42 4.5 12C4.5 7.92 7.55 4.56 11.5 4.07V6.09C8.66 6.57 6.5 9.03 6.5 12C6.5 15.31 9.19 18 12.5 18C15.81 18 18.5 15.31 18.5 12C18.5 10.34 17.83 8.84 16.74 7.76L15.33 9.17C16.05 9.9 16.5 10.9 16.5 12C16.5 14.21 14.71 16 12.5 16C10.29 16 8.5 14.21 8.5 12C8.5 10.14 9.78 8.59 11.5 8.14V10.28C10.9 10.63 10.5 11.26 10.5 12C10.5 13.1 11.4 14 12.5 14C13.6 14 14.5 13.1 14.5 12C14.5 11.26 14.1 10.62 13.5 10.28V2H12.5C6.98 2 2.5 6.48 2.5 12C2.5 17.52 6.98 22 12.5 22C18.02 22 22.5 17.52 22.5 12C22.5 9.24 21.38 6.74 19.57 4.93Z" fill="white"/>
</svg>
