
<svg id="Layer_1" data-name="Layer 1" xmlns="http://www.w3.org/2000/svg" viewBox="0 0 10 10"><defs><style>.cls-1{fill:#c4314b;}.cls-2{fill:#fff;}</style></defs><title>icn_status_ALL</title><path class="cls-1" d="M6.311.176A5.057,5.057,0,0,1,7.52.684a5.009,5.009,0,0,1,2.3,3.005,4.944,4.944,0,0,1,0,2.622,5.258,5.258,0,0,1-.506,1.2A5.079,5.079,0,0,1,8.53,8.53a4.94,4.94,0,0,1-1.011.782,5.1,5.1,0,0,1-1.206.51,4.924,4.924,0,0,1-2.624,0,5.042,5.042,0,0,1-1.2-.511A4.819,4.819,0,0,1,1.47,8.53,4.883,4.883,0,0,1,.688,7.515a5.1,5.1,0,0,1-.51-1.2,4.928,4.928,0,0,1,0-2.625A5.1,5.1,0,0,1,.688,2.48,4.961,4.961,0,0,1,1.47,1.47,5.015,5.015,0,0,1,2.485.684a5.214,5.214,0,0,1,1.2-.506A4.839,4.839,0,0,1,5,0,4.917,4.917,0,0,1,6.311.176Z"/><rect class="cls-2" x="3" y="4.5" width="4" height="1"/></svg>