<svg width="29" height="28" viewBox="0 0 29 28" fill="none" xmlns="http://www.w3.org/2000/svg">
<g id="Group 5">
<path id="Vector" d="M16.4273 24.463H12.4398C12.2166 24.463 12.0371 24.2815 12.0371 24.0603V21.0013C12.0371 20.7781 12.2186 20.5986 12.4398 20.5986H16.4273C16.6506 20.5986 16.83 20.7802 16.83 21.0013V24.0603C16.83 24.2836 16.6485 24.463 16.4273 24.463ZM12.8446 23.6555H16.0246V21.4041H12.8446V23.6555Z" fill="#EF4040"/>
<path id="Vector_2" d="M22.6349 27.2007H6.29467C6.14861 27.2007 6.01506 27.1235 5.94412 26.9962C5.87109 26.871 5.87317 26.7145 5.94829 26.5914L7.5675 23.8537C7.64053 23.7306 7.77199 23.6555 7.91596 23.6555H21.0178C21.1597 23.6555 21.2932 23.7306 21.3662 23.8537L22.9854 26.5914C23.0585 26.7166 23.0606 26.871 22.9875 26.9962C22.9166 27.1214 22.781 27.2007 22.637 27.2007H22.6349ZM7.00203 26.3931H21.9275L20.7862 24.463H8.1434L7.00203 26.3931Z" fill="#EF4040"/>
<g id="Group">
<path id="Vector_3" d="M14.5057 13.352C13.1515 13.352 12.0498 12.2502 12.0498 10.896C12.0498 10.6727 12.2313 10.4933 12.4525 10.4933C12.6737 10.4933 12.8573 10.6748 12.8573 10.896C12.8573 11.8058 13.596 12.5444 14.5057 12.5444C15.4155 12.5444 16.1542 11.8058 16.1542 10.896C16.1542 9.98625 15.4155 9.24759 14.5057 9.24759C14.2825 9.24759 14.1009 9.06606 14.1009 8.84279C14.1009 8.61952 14.2825 8.43799 14.5057 8.43799C15.86 8.43799 16.9617 9.53972 16.9617 10.8939C16.9617 12.2481 15.86 13.3499 14.5057 13.3499V13.352Z" fill="#EF4040"/>
<path id="Vector_4" d="M14.5055 16.6194C14.1738 16.6194 13.8399 16.5902 13.5123 16.5338C13.4059 16.5151 13.3141 16.4566 13.2515 16.369C13.1889 16.2814 13.1659 16.1729 13.1847 16.0685L13.3308 15.2255C13.0825 15.1588 12.8425 15.0711 12.6088 14.9626L12.1811 15.7055C12.1268 15.7973 12.0392 15.8661 11.9348 15.8932C11.8305 15.9204 11.7199 15.9058 11.6281 15.8536C11.0459 15.5177 10.5305 15.0857 10.0944 14.5703C10.0256 14.489 9.9922 14.3825 10.0005 14.2761C10.0089 14.1697 10.0611 14.0716 10.1424 14.0028L10.7976 13.4519C10.6516 13.2433 10.5222 13.02 10.4137 12.7863L9.60826 13.0805C9.3996 13.1577 9.16799 13.0492 9.09078 12.8405C8.85917 12.2104 8.74232 11.5468 8.74023 10.8708C8.74023 10.6475 8.91968 10.466 9.14295 10.466H9.99429C10.0068 10.3303 10.0235 10.1968 10.0485 10.0674C10.0715 9.94641 10.0965 9.82747 10.1299 9.70854L9.32448 9.41641C9.22433 9.38094 9.14086 9.30582 9.09704 9.20775C9.05114 9.11177 9.04697 8.99909 9.08244 8.89893C9.31196 8.26669 9.64791 7.68244 10.0798 7.16496C10.2217 6.99386 10.4763 6.97091 10.6474 7.11488L11.3026 7.66366C11.4841 7.48421 11.6803 7.31728 11.891 7.16913L11.4591 6.42839C11.3464 6.23642 11.4111 5.98811 11.6051 5.87544C12.1894 5.53532 12.8216 5.30371 13.4852 5.18477C13.5895 5.16599 13.7001 5.18894 13.7877 5.25154C13.8754 5.31205 13.9359 5.40595 13.9547 5.51237L14.1049 6.35327C14.3636 6.32823 14.6099 6.32823 14.8728 6.35118L15.0168 5.51028C15.0543 5.29119 15.2651 5.14513 15.4821 5.1806C16.1456 5.29536 16.7799 5.5228 17.3663 5.85875C17.4602 5.913 17.5269 6.00063 17.5562 6.10288C17.5833 6.20721 17.5708 6.31571 17.5165 6.40961L17.0908 7.15244C17.3016 7.30059 17.4998 7.46335 17.6814 7.6428L18.3345 7.08984C18.5056 6.94587 18.7601 6.96673 18.9041 7.13784C19.3402 7.65323 19.6782 8.23331 19.9119 8.86555C19.9495 8.9657 19.9453 9.0763 19.8994 9.17437C19.8535 9.27244 19.7721 9.34755 19.672 9.38511L18.8686 9.68141C18.9041 9.80869 18.9333 9.93806 18.9563 10.0674C18.9792 10.1926 18.9959 10.3199 19.0084 10.4472L19.8577 10.4389C19.9578 10.4389 20.0684 10.4806 20.1456 10.5557C20.2228 10.6308 20.2646 10.7351 20.2646 10.8437C20.2646 11.5385 20.1477 12.202 19.9182 12.8322C19.8806 12.9323 19.8055 13.0158 19.7095 13.0596C19.6115 13.1055 19.5009 13.1097 19.4007 13.0722L18.5953 12.7779C18.4868 13.0116 18.3574 13.2349 18.2134 13.4436L18.8686 13.9923C18.95 14.0612 19.0022 14.1593 19.0105 14.2657C19.021 14.3721 18.9855 14.4785 18.9166 14.5599C18.4847 15.0753 17.9693 15.5072 17.3871 15.8453C17.1952 15.9579 16.9469 15.8912 16.8363 15.6992L16.4064 14.9584C16.1748 15.0669 15.9328 15.1546 15.6845 15.2214L15.8326 16.0643C15.8514 16.1708 15.8264 16.2793 15.7658 16.3669C15.7053 16.4545 15.6114 16.5151 15.505 16.5338C15.1753 16.5923 14.8373 16.6215 14.5014 16.6215L14.5055 16.6194ZM14.0507 15.791C14.3553 15.8181 14.6641 15.8181 14.9688 15.791L14.8269 14.9814C14.7872 14.7623 14.9354 14.5516 15.1545 14.514C15.5822 14.4389 15.9891 14.2886 16.3626 14.0716C16.4544 14.0174 16.565 14.0028 16.6693 14.0299C16.7737 14.057 16.8613 14.1259 16.9156 14.2177L17.3287 14.9292C17.5812 14.754 17.8149 14.5578 18.0319 14.3387L17.4038 13.8108C17.3225 13.742 17.2703 13.6439 17.2619 13.5375C17.2515 13.431 17.287 13.3246 17.3558 13.2433C17.6313 12.9157 17.8483 12.538 17.9985 12.1248C18.0757 11.9162 18.3073 11.8077 18.516 11.8828L19.288 12.1645C19.3694 11.864 19.4237 11.5573 19.4487 11.2443L18.6328 11.2526C18.516 11.2485 18.4221 11.2109 18.3449 11.1358C18.2677 11.0607 18.226 10.9563 18.226 10.8499C18.226 10.6392 18.2051 10.4222 18.1675 10.2072C18.1279 9.99023 18.0695 9.7774 17.9943 9.57291C17.9568 9.47275 17.961 9.36216 18.0069 9.26409C18.0528 9.16602 18.1341 9.0909 18.2343 9.05334L19.0063 8.76956C18.877 8.49205 18.7226 8.22496 18.5431 7.97665L17.9171 8.50665C17.7481 8.65063 17.4936 8.62976 17.3475 8.45866C17.0679 8.12897 16.734 7.85146 16.3564 7.63236C16.1623 7.52177 16.0976 7.27555 16.2082 7.0815L16.6172 6.36788C16.3376 6.23642 16.0496 6.13209 15.7512 6.05697L15.6114 6.86658C15.5927 6.97299 15.5342 7.06689 15.4466 7.1274C15.359 7.19 15.2505 7.21295 15.144 7.19626C14.6766 7.11488 14.3094 7.11906 13.8545 7.20043C13.7502 7.21921 13.6396 7.19626 13.552 7.13366C13.4643 7.07315 13.4038 6.97925 13.385 6.87284L13.241 6.06532C12.9427 6.14461 12.6547 6.24894 12.3772 6.38248L12.7903 7.09402C12.903 7.28599 12.8383 7.53429 12.6443 7.64697C12.2645 7.86815 11.9327 8.14775 11.6552 8.47744C11.5112 8.64854 11.2567 8.67149 11.0877 8.52752L10.4575 8.00169C10.2802 8.25208 10.1278 8.51917 9.99846 8.79878L10.7726 9.07838C10.8727 9.11385 10.9562 9.18897 11 9.28704C11.0459 9.38303 11.0501 9.4957 11.0146 9.59586C10.9416 9.79618 10.8853 10.0027 10.8477 10.2114C10.8081 10.4242 10.7893 10.6413 10.7893 10.8583C10.7893 11.0753 10.6098 11.2693 10.3866 11.2693H9.56862C9.59366 11.5781 9.64791 11.8807 9.72929 12.1749L10.5013 11.8911C10.71 11.8139 10.9416 11.9224 11.0188 12.1311C11.169 12.5422 11.3861 12.9177 11.6636 13.2474C11.7324 13.3288 11.7658 13.4352 11.7575 13.5416C11.7491 13.6481 11.697 13.7461 11.6156 13.815L10.9875 14.345C11.2045 14.5641 11.4382 14.7602 11.6907 14.9355L12.1018 14.224C12.156 14.1301 12.2436 14.0633 12.348 14.0362C12.4523 14.009 12.5629 14.0236 12.6547 14.0758C13.0303 14.2928 13.4372 14.441 13.8649 14.5161C14.084 14.5536 14.2301 14.7644 14.1925 14.9835L14.0527 15.7931L14.0507 15.791Z" fill="#EF4040"/>
<path id="Vector_5" d="M14.1006 10.896C14.1006 10.6727 14.28 10.4912 14.5033 10.4912C14.7266 10.4912 14.906 10.6707 14.906 10.896C14.906 11.1193 14.7266 11.3008 14.5033 11.3008C14.28 11.3008 14.1006 11.1214 14.1006 10.896Z" fill="#EF4040"/>
</g>
<path id="Vector_6" d="M26.4834 2.9209H2.5166V18.8688H26.4834V2.9209Z" stroke="#EF4040" stroke-width="0.7" stroke-miterlimit="10"/>
<path id="Vector_7" d="M28.5697 0.798828H0.429688V20.92H28.5697V0.798828Z" stroke="#EF4040" stroke-width="0.7" stroke-miterlimit="10"/>
</g>
</svg>
