<svg width="32" height="32" viewBox="0 0 32 32" fill="none" xmlns="http://www.w3.org/2000/svg">
<g id="format_quote">
<path id="Vector" d="M9.56016 22.6666C10.2402 22.6666 10.8668 22.2799 11.1602 21.6799L13.0535 17.8933C13.2402 17.5199 13.3335 17.1199 13.3335 16.7066V10.6666C13.3335 9.93325 12.7335 9.33325 12.0002 9.33325H6.66683C5.9335 9.33325 5.3335 9.93325 5.3335 10.6666V15.9999C5.3335 16.7333 5.9335 17.3333 6.66683 17.3333H9.3335L7.96016 20.0799C7.36016 21.2666 8.22683 22.6666 9.56016 22.6666ZM22.8935 22.6666C23.5735 22.6666 24.2002 22.2799 24.4935 21.6799L26.3868 17.8933C26.5735 17.5199 26.6668 17.1199 26.6668 16.7066V10.6666C26.6668 9.93325 26.0668 9.33325 25.3335 9.33325H20.0002C19.2668 9.33325 18.6668 9.93325 18.6668 10.6666V15.9999C18.6668 16.7333 19.2668 17.3333 20.0002 17.3333H22.6668L21.2935 20.0799C20.6935 21.2666 21.5602 22.6666 22.8935 22.6666Z" fill="#3298EB"/>
</g>
</svg>
