<svg width="31" height="26" viewBox="0 0 31 26" fill="none" xmlns="http://www.w3.org/2000/svg">
<g id="Group 4">
<path id="Vector" d="M26.7663 14.867C26.7663 14.3109 26.3152 13.8599 25.7591 13.8599C25.203 13.8599 24.752 14.3109 24.752 14.867C24.752 15.4231 25.203 15.8742 25.7591 15.8742C26.3152 15.8742 26.7663 15.4231 26.7663 14.867Z" stroke="#66D234" stroke-width="0.7" stroke-miterlimit="10"/>
<path id="Vector_2" d="M9.31597 14.6379C8.06434 14.6379 7.01758 13.8925 7.01758 12.467V10.8985C7.01758 9.47129 8.06434 8.72754 9.31597 8.72754C10.5676 8.72754 11.6144 9.47301 11.6144 10.8985V12.467C11.6144 13.8942 10.5521 14.6379 9.31597 14.6379ZM10.1251 10.9605C10.1251 10.3579 9.82386 10.0566 9.31597 10.0566C8.80809 10.0566 8.5068 10.3579 8.5068 10.9605V12.4033C8.5068 13.0058 8.80809 13.3071 9.31597 13.3071C9.82386 13.3071 10.1251 13.0058 10.1251 12.4033V10.9605ZM11.06 20.1059H9.44338L14.7856 8.82051H16.4023L11.06 20.1059ZM16.5124 20.2006C15.2608 20.2006 14.2141 19.4551 14.2141 18.0296V16.4594C14.2141 15.0322 15.2608 14.2885 16.5124 14.2885C17.7641 14.2885 18.8108 15.0339 18.8108 16.4594V18.0296C18.8108 19.4568 17.7486 20.2006 16.5124 20.2006ZM17.3216 16.5231C17.3216 15.9206 17.0203 15.6193 16.5124 15.6193C16.0046 15.6193 15.7033 15.9206 15.7033 16.5231V17.9659C15.7033 18.5685 15.9891 18.8697 16.5124 18.8697C17.0358 18.8697 17.3216 18.5685 17.3216 17.9659V16.5231Z" stroke="#66D234" stroke-width="0.7" stroke-miterlimit="10"/>
<path id="Vector_3" d="M29.7739 4.23438H1.22559V25.5001H29.7739V4.23438Z" stroke="#66D234" stroke-width="0.7" stroke-miterlimit="10"/>
<path id="Vector_4" d="M29.5694 12.4756H23.2148V17.2463H29.7743" stroke="#66D234" stroke-width="0.7" stroke-miterlimit="10"/>
<path id="Vector_5" d="M5.71582 4.23425L22.8668 0.5L27.0883 4.09652" stroke="#66D234" stroke-width="0.7" stroke-miterlimit="10"/>
</g>
</svg>
