<svg width="120" height="48" viewBox="0 0 120 48" fill="none" xmlns="http://www.w3.org/2000/svg">
<path d="M20.1478 30.1995C17.5412 30.1995 15.7158 31.3965 14.3459 33.2092C13.434 31.3965 11.6728 30.1995 9.19446 30.1995C6.55378 30.1995 5.05407 31.6229 3.94469 33.144V32.3346C3.94469 31.2342 3.06453 30.3608 1.9569 30.3608C0.847699 30.3608 0 31.2342 0 32.3346V45.8635C0 46.9631 0.880167 47.8054 1.9569 47.8054C3.06453 47.8054 3.94469 46.9631 3.94469 45.8635V37.9981C3.94469 35.3777 5.44545 33.759 7.62964 33.759C9.81417 33.759 11.1182 35.248 11.1182 37.9014V45.8635C11.1182 46.9631 11.9984 47.8054 13.1069 47.8054C14.1836 47.8054 15.0638 46.9631 15.0638 45.8635V37.9981C15.0638 35.248 16.5952 33.759 18.7478 33.759C20.9647 33.759 22.2362 35.2154 22.2362 37.9335V45.8635C22.2362 46.9631 23.1165 47.8054 24.2249 47.8054C24.3593 47.8054 24.4743 47.757 24.6001 47.7334C25.511 47.5615 26.1811 46.8297 26.1811 45.8635V36.7365C26.1811 34.6707 25.6189 33.0529 24.6001 31.9412C23.5597 30.8062 22.0431 30.1995 20.1478 30.1995ZM40.4638 41.4941C40.4638 43.6622 38.4742 45.1514 35.866 45.1514C33.975 45.1514 32.5075 44.2129 32.5075 42.5634V42.4977C32.5075 40.718 34.0081 39.6498 36.5507 39.6498C38.1153 39.6498 39.4527 39.9402 40.4638 40.3293V41.4941ZM36.6488 30.3278C34.3979 30.3278 32.7357 30.7171 31.1061 31.3321C30.5189 31.5589 30.0292 32.1738 30.0292 32.8854C30.0292 33.7907 30.7797 34.5033 31.6923 34.5033C31.8871 34.5033 32.0837 34.471 32.3118 34.4066C33.3879 33.9858 34.6278 33.7261 36.1267 33.7261C38.8981 33.7261 40.398 35.0215 40.398 37.4485V37.8695C39.0604 37.4485 37.6915 37.1567 35.7686 37.1567C31.5616 37.1567 28.6602 38.9687 28.6602 42.6597V42.7234C28.6602 46.1548 31.53 47.9999 34.7577 47.9999C37.3993 47.9999 39.1921 46.8991 40.3655 45.5078V46.1548C40.3655 47.0286 41.1476 47.8054 42.2891 47.8054C43.3642 47.8054 44.2119 46.9963 44.2119 45.9285V37.5138C44.2119 35.2802 43.6266 33.4676 42.3542 32.2383C41.1476 31.0071 39.2245 30.3278 36.6488 30.3278ZM56.3738 37.9671L60.9389 33.7909C61.4928 33.2727 61.8177 32.788 61.8177 32.1408C61.8177 31.2016 61.1346 30.3604 60.0912 30.3604C59.4068 30.3604 58.9171 30.6834 58.3958 31.2016L50.9942 38.4192V25.7972C50.9942 24.7289 50.114 23.8553 49.0055 23.8553C47.8972 23.8553 47.0495 24.7289 47.0495 25.7972V26.2975V45.8641C47.0495 46.6986 47.5574 47.3826 48.2721 47.6651C48.4992 47.7548 48.7461 47.8057 49.0055 47.8057C50.114 47.8057 50.9942 46.9639 50.9942 45.8641V42.8856L53.6024 40.4258L58.5264 46.9323C59.0145 47.5461 59.4717 47.8057 60.2536 47.8057C61.2647 47.8057 62.1124 47.0927 62.1124 46.0254C62.1124 45.5716 61.95 45.2161 61.5911 44.73L56.3738 37.9671ZM71.9431 33.921H72.7747C73.7201 33.921 74.5029 33.1763 74.5029 32.2379C74.5029 31.2989 73.7201 30.5556 72.7747 30.5556H71.9431H69.677V27.6418C69.677 26.5745 68.7966 25.7008 67.7208 25.7008C66.6124 25.7008 65.7321 26.5745 65.7321 27.6418V30.5556H65.0794C64.135 30.5556 63.3845 31.2989 63.3845 32.2379C63.3845 33.1763 64.135 33.921 65.0794 33.921H65.7321V42.9183C65.7321 46.673 67.7864 47.9351 70.6881 47.9351C71.1439 47.9351 71.5519 47.8987 71.9431 47.8393C72.4461 47.7633 72.9179 47.6453 73.3951 47.482C73.9483 47.2549 74.438 46.673 74.438 45.96C74.438 45.0534 73.6559 44.3424 72.7747 44.3424C72.6592 44.3424 72.3329 44.4155 71.9431 44.4322C71.8942 44.4348 71.8478 44.4392 71.7973 44.4392C70.4597 44.4392 69.677 43.825 69.677 42.3025V33.921H71.9431ZM87.8049 41.4941C87.8049 43.6622 85.8173 45.1514 83.2084 45.1514C81.3178 45.1514 79.8497 44.2129 79.8497 42.5634V42.4977C79.8497 40.718 81.3505 39.6498 83.8936 39.6498C85.4575 39.6498 86.794 39.9402 87.8049 40.3293V41.4941ZM89.6969 32.2383C88.4903 31.0071 86.5665 30.3278 83.9911 30.3278C81.7417 30.3278 80.078 30.7171 78.4488 31.3321C77.8619 31.5589 77.3723 32.1738 77.3723 32.8854C77.3723 33.7907 78.1225 34.5033 79.0352 34.5033C79.2302 34.5033 79.4259 34.471 79.6547 34.4066C80.7306 33.9858 81.9691 33.7261 83.4697 33.7261C86.2401 33.7261 87.7402 35.0215 87.7402 37.4485V37.8695C86.4035 37.4485 85.0345 37.1567 83.1108 37.1567C78.9044 37.1567 76.0033 38.9687 76.0033 42.6597V42.7234C76.0033 46.1548 78.8721 47.9999 82.0997 47.9999C84.7404 47.9999 86.5342 46.8991 87.7084 45.5078V46.1548C87.7084 47.0286 88.4903 47.8054 89.6311 47.8054C89.8383 47.8054 90.0261 47.7514 90.2122 47.6952C90.9916 47.4603 91.5557 46.791 91.5557 45.9285V37.5138C91.5557 35.6278 91.1076 34.0669 90.2122 32.8789C90.0467 32.6597 89.8949 32.4296 89.6969 32.2383ZM108.064 39.1312C108.064 42.4981 105.846 44.6009 103.142 44.6009C100.468 44.6009 98.1196 42.4004 98.1196 39.1312V39.0668C98.1196 35.797 100.468 33.5982 103.142 33.5982C105.814 33.5982 108.064 35.7647 108.064 39.0668V39.1312ZM104.087 30.1992C101.283 30.1992 99.4878 31.6233 98.2184 33.4039V25.7974C98.2184 24.6969 97.3368 23.8553 96.229 23.8553C95.1216 23.8553 94.2721 24.6969 94.2721 25.7974V26.2975V45.8641C94.2721 46.7183 94.8393 47.4401 95.6158 47.6979C95.8101 47.7627 96.0138 47.8058 96.229 47.8058C97.3368 47.8058 98.2184 46.9323 98.2184 45.8641V44.9903C99.4243 46.5752 101.216 48.0003 104.087 48.0003C106.376 48.0003 108.613 46.9884 110.135 45.0981C111.322 43.6231 112.074 41.6135 112.074 39.1312V39.0668C112.074 36.5778 111.321 34.5706 110.135 33.0997C108.608 31.2048 106.363 30.1992 104.087 30.1992ZM116.443 30.3608C116.337 30.3608 116.235 30.3757 116.134 30.3913C115.183 30.5378 114.488 31.3403 114.488 32.3346V45.8635C114.488 46.8549 115.206 47.6308 116.134 47.7752C116.235 47.7908 116.337 47.8054 116.443 47.8054C117.552 47.8054 118.433 46.963 118.433 45.8635V32.3346C118.433 31.2343 117.552 30.3608 116.443 30.3608ZM116.461 27.7994C117.55 27.7994 118.433 26.9162 118.433 25.8271C118.433 24.7381 117.55 23.8552 116.461 23.8552C115.371 23.8552 114.488 24.7381 114.488 25.8271C114.488 26.9162 115.371 27.7994 116.461 27.7994Z" fill="#00A6DD"/>
<path fill-rule="evenodd" clip-rule="evenodd" d="M40.0012 20.822H40.1366C41.14 20.7844 41.9456 19.9719 41.9456 18.9594C41.9456 17.9465 41.1388 17.1328 40.1344 17.0964H40.0034C38.9992 17.1328 38.1924 17.9465 38.1924 18.9594C38.1924 19.9719 38.9981 20.7844 40.0012 20.822Z" fill="#52CD18"/>
<path fill-rule="evenodd" clip-rule="evenodd" d="M8.99857 18.9594C8.99857 17.9231 8.15842 17.0833 7.12205 17.0833C6.08744 17.0833 5.24957 17.9203 5.24658 18.9541C5.24957 19.9865 6.08691 20.8234 7.12064 20.8234H7.184C8.19001 20.7886 8.99857 19.974 8.99857 18.9594Z" fill="#FF4300"/>
<path fill-rule="evenodd" clip-rule="evenodd" d="M1.8767 17.0833C0.840152 17.0833 0 17.9231 0 18.9597C0 19.996 0.840152 20.8358 1.8767 20.8358C2.91289 20.8358 3.75322 19.996 3.75322 18.9597C3.75322 17.9231 2.91289 17.0833 1.8767 17.0833Z" fill="#F2DF00"/>
<path fill-rule="evenodd" clip-rule="evenodd" d="M67.3679 8.99762C68.4041 8.99762 69.2444 8.15722 69.2444 7.12116C69.2444 6.08474 68.4041 5.24487 67.3679 5.24487C66.3314 5.24487 65.4912 6.08474 65.4912 7.12116C65.4912 8.15722 66.3314 8.99762 67.3679 8.99762Z" fill="#00A6DD"/>
<path fill-rule="evenodd" clip-rule="evenodd" d="M67.3679 3.75299C68.4041 3.75299 69.2444 2.91294 69.2444 1.87688C69.2444 0.840116 68.4041 0.000244141 67.3679 0.000244141C66.3314 0.000244141 65.4912 0.840116 65.4912 1.87688C65.4912 2.91294 66.3314 3.75299 67.3679 3.75299Z" fill="#E10AB5"/>
<path d="M31.9562 17.0968C31.3947 17.0968 30.8563 16.8754 30.4572 16.4805L21.2487 7.23982C19.6809 5.65133 17.1673 5.23649 15.1582 6.19428C13.9016 6.79339 12.8979 7.90263 12.4272 9.21263C11.7385 11.1294 12.222 13.339 13.6887 14.759L15.9829 17.1159L9.36914 17.0844C9.79615 17.595 10.0636 18.2436 10.0636 18.9594C10.0636 19.6705 9.79966 20.3147 9.37844 20.8234H21.1313C22.6378 20.8364 23.3976 19.0126 22.3273 17.9525L16.2557 11.8402C16.2373 11.8179 16.2265 11.7921 16.2097 11.7694C15.7509 11.1482 15.7797 10.2808 16.3455 9.72276C16.9661 9.11049 17.9655 9.11734 18.5776 9.7375L28.3032 19.5589C29.1038 20.3687 30.1885 20.8238 31.3273 20.8234C31.794 20.8234 34.2218 20.8227 37.8118 20.8224C37.3909 20.3135 37.1275 19.6698 37.1275 18.9594C37.1275 18.2491 37.3909 17.6054 37.8118 17.0968H31.9562ZM114.195 17.0961C113.232 17.0961 112.451 16.3156 112.451 15.3523C112.451 14.3891 113.232 13.6084 114.195 13.6084C115.158 13.6084 115.939 14.3891 115.939 15.3523C115.939 16.3156 115.158 17.0961 114.195 17.0961ZM114.118 9.95038C111.114 9.95038 108.68 12.3845 108.68 15.3873V17.0837H98.8013C98.9787 16.547 99.0982 15.9834 99.0982 15.3873C99.0982 13.441 98.0669 11.7465 96.5021 10.7618C95.5289 10.0829 94.4487 9.94845 93.2895 9.94933C90.0905 9.95144 86.8593 9.95565 83.6605 9.94933L89.071 6.81271C89.9338 6.30205 90.219 5.18895 89.7084 4.32644C89.5282 4.02215 89.26 3.81929 88.9645 3.66714C88.4281 3.3911 87.7793 3.35934 87.2218 3.68908L79.3226 8.40085C79.3077 8.4098 79.1792 8.50596 79.128 8.54404C79.0162 8.62512 78.909 8.70935 78.8005 8.8178C78.6792 8.93959 78.5709 9.06997 78.4769 9.21001C78.4535 9.24423 78.4353 9.28143 78.4132 9.31635C78.3531 9.4155 78.2945 9.51465 78.2487 9.61994C78.0748 9.98916 77.9707 10.3972 77.9707 10.8324C77.9707 12.414 79.253 13.6965 80.835 13.6965H93.6698C93.8627 13.6965 94.0417 13.7452 94.2139 13.8063C94.2548 13.823 94.2983 13.834 94.3374 13.8533C94.3711 13.87 94.4069 13.8828 94.4394 13.9028C94.4771 13.9225 94.508 13.9513 94.5443 13.9734C95.0293 14.2729 95.3698 14.7846 95.3698 15.396C95.3698 16.3349 94.6084 17.0961 93.6698 17.0961H69.2433V11.8242C69.2433 10.789 68.404 9.94933 67.3681 9.94933C66.3325 9.94933 65.4932 10.789 65.4932 11.8242V16.2587L65.4678 16.5037C65.4342 16.693 65.3691 16.825 65.2749 16.9038C65.1871 17.0059 65.0934 17.0619 64.9898 17.0703C64.9189 17.0879 64.8026 17.0961 64.6399 17.0961H55.7148L55.7157 13.6993V11.8242C55.7157 10.789 54.8764 9.94933 53.8408 9.94933C52.8051 9.94933 51.9653 10.789 51.9653 11.8242V16.2587L51.9402 16.5037C51.9046 16.693 51.8398 16.825 51.7465 16.9038C51.6587 17.0059 51.5636 17.0619 51.4597 17.0703C51.3925 17.0879 51.2733 17.0961 51.1101 17.0961L42.3263 17.0965C42.7473 17.6054 43.0108 18.2491 43.0108 18.9594C43.0108 19.6698 42.7475 20.3131 42.327 20.822C58.8989 20.8208 114.118 20.8241 114.118 20.8241C117.121 20.8241 119.555 18.39 119.555 15.3873C119.555 12.3845 117.121 9.95038 114.118 9.95038Z" fill="#636366"/>
</svg>
