
<svg id="Layer_1" data-name="Layer 1" xmlns="http://www.w3.org/2000/svg" viewBox="0 0 10 10"><defs><style>.cls-1{fill:#fff;}.cls-2{fill:#929292;}</style></defs><title>icn_status_ALL</title><circle class="cls-1" cx="5" cy="5" r="4"/><path class="cls-2" d="M9.824,3.689A5.1,5.1,0,0,0,9.316,2.48a5.17,5.17,0,0,0-1.8-1.8A5.057,5.057,0,0,0,6.311.176,4.917,4.917,0,0,0,5,0,4.839,4.839,0,0,0,3.689.178a5.2,5.2,0,0,0-1.2.506A5.015,5.015,0,0,0,1.47,1.47,4.961,4.961,0,0,0,.688,2.48a5.085,5.085,0,0,0-.51,1.207,4.924,4.924,0,0,0,0,2.624,5.1,5.1,0,0,0,.51,1.2,4.982,4.982,0,0,0,1.8,1.8,5.1,5.1,0,0,0,1.2.51,4.924,4.924,0,0,0,2.624,0A5.081,5.081,0,0,0,7.52,9.311,4.921,4.921,0,0,0,8.53,8.53a5.079,5.079,0,0,0,.786-1.015,5.258,5.258,0,0,0,.506-1.2,4.944,4.944,0,0,0,0-2.622ZM8.859,6.054a3.91,3.91,0,0,1-.408.961A4.046,4.046,0,0,1,7.015,8.45a3.953,3.953,0,0,1-4.03,0A4.038,4.038,0,0,1,1.549,7.015a3.961,3.961,0,0,1,0-4.03A4.057,4.057,0,0,1,2.985,1.549a3.985,3.985,0,0,1,3.069-.408,3.959,3.959,0,0,1,.961.408A4.054,4.054,0,0,1,8.45,2.985a3.981,3.981,0,0,1,.409,3.069Zm-2-2.2L5.707,5,6.854,6.146l-.708.707L5,5.707,3.854,6.853l-.708-.707L4.293,5,3.146,3.853l.708-.707L5,4.293,6.146,3.146Z"/></svg>