
<svg id="Layer_1" data-name="Layer 1" xmlns="http://www.w3.org/2000/svg" viewBox="0 0 10 10"><defs><style>.cls-1{fill:#fff;}.cls-2{fill:#b4009e;}</style></defs><title>icn_status_ALL</title><circle class="cls-1" cx="5" cy="5" r="4"/><path class="cls-2" d="M.674,2.5A5.031,5.031,0,0,1,2.5.674,4.856,4.856,0,0,1,5,0,4.864,4.864,0,0,1,7.505.674,5.038,5.038,0,0,1,9.326,2.5,4.861,4.861,0,0,1,10,5a4.861,4.861,0,0,1-.674,2.505A5.038,5.038,0,0,1,7.505,9.326,4.864,4.864,0,0,1,5,10a4.856,4.856,0,0,1-2.5-.674A5.031,5.031,0,0,1,.674,7.505,4.861,4.861,0,0,1,0,5,4.861,4.861,0,0,1,.674,2.5ZM1.54,7A4.018,4.018,0,0,0,3,8.459,3.868,3.868,0,0,0,5,9a3.87,3.87,0,0,0,2-.54A4.038,4.038,0,0,0,8.459,7,3.887,3.887,0,0,0,9,5a3.887,3.887,0,0,0-.54-2A4.046,4.046,0,0,0,7,1.541,3.88,3.88,0,0,0,5,1a3.877,3.877,0,0,0-2,.54A4.015,4.015,0,0,0,1.541,3,3.868,3.868,0,0,0,1,5,3.876,3.876,0,0,0,1.54,7ZM4.15,3.149a.5.5,0,1,1,.7.7L4.2,4.5H7a.5.5,0,0,1,0,1H4.2l.649.649a.495.495,0,0,1,0,.7.529.529,0,0,1-.166.112A.477.477,0,0,1,4.5,7a.487.487,0,0,1-.191-.039.477.477,0,0,1-.161-.112l-1.5-1.5a.5.5,0,0,1,0-.7Z"/></svg>