
<svg id="Layer_1" data-name="Layer 1" xmlns="http://www.w3.org/2000/svg" viewBox="0 0 9.997 10.003"><defs><style>.cls-1{fill:#92c353;}.cls-2{fill:#fff;}</style></defs><title>1_Presence_Available_Light_theme_2_10px</title><path class="cls-1" d="M6.311.176A5,5,0,0,1,9.82,3.689a4.944,4.944,0,0,1,0,2.622,5.233,5.233,0,0,1-.506,1.2A5.038,5.038,0,0,1,8.53,8.53a4.974,4.974,0,0,1-1.01.782,5.089,5.089,0,0,1-1.207.51,4.931,4.931,0,0,1-2.624,0,5.043,5.043,0,0,1-1.2-.511A4.807,4.807,0,0,1,1.47,8.53,4.907,4.907,0,0,1,.688,7.515a5.1,5.1,0,0,1-.51-1.2,4.931,4.931,0,0,1,0-2.624A5.03,5.03,0,0,1,2.488.68a5.214,5.214,0,0,1,1.2-.506,4.959,4.959,0,0,1,2.626,0Z" transform="translate(0 0.003)"/><path class="cls-2" d="M6.821,3.594a.514.514,0,0,1,.152.1.549.549,0,0,1,.1.152.425.425,0,0,1,.039.175.454.454,0,0,1-.136.332l-2.1,2.11a.471.471,0,0,1-.664,0l-.957-.957a.447.447,0,0,1-.137-.332A.419.419,0,0,1,3.159,5a.463.463,0,0,1,.1-.151.509.509,0,0,1,.151-.1.426.426,0,0,1,.176-.039.418.418,0,0,1,.327.137l.63.625L6.314,3.691a.45.45,0,0,1,.332-.136A.425.425,0,0,1,6.821,3.594Z" transform="translate(0 0.003)"/></svg>