<svg width="78" height="47" viewBox="0 0 78 47" fill="none" xmlns="http://www.w3.org/2000/svg">
<g id="Group">
<path id="Vector" d="M14.4326 45.3659L14.4331 45.365C16.1097 42.2603 17.2902 39.0152 17.581 35.5891L17.6674 34.5724L16.6491 34.5066C7.91286 33.942 1 26.6664 1 17.771C1 8.50632 8.49849 1 17.7424 1C26.9885 1 34.4869 8.5064 34.4869 17.771C34.4869 31.1379 25.3709 38.8207 14.965 45.8544C14.8661 45.9212 14.7898 45.9291 14.7318 45.9227C14.6633 45.9151 14.5835 45.8817 14.5128 45.8175C14.4421 45.7532 14.4009 45.6766 14.3866 45.6081C14.3745 45.55 14.3752 45.472 14.4326 45.3659Z" stroke="#00A6DD" stroke-width="2"/>
<path id="Vector_2" d="M76.9996 17.771C76.9996 31.1379 67.8856 38.8208 57.4798 45.8544C57.3809 45.9212 57.3046 45.9291 57.2465 45.9227C57.178 45.9151 57.098 45.8817 57.0271 45.8173C56.9561 45.7528 56.9147 45.6759 56.9003 45.6072C56.888 45.5487 56.8888 45.4707 56.9459 45.3647C58.6222 42.2605 59.805 39.0153 60.0938 35.5885L60.1794 34.5724L59.1618 34.5066C50.4275 33.942 43.5127 26.6663 43.5127 17.771C43.5127 8.5064 51.0111 1 60.2572 1C69.5011 1 76.9996 8.50632 76.9996 17.771Z" stroke="#00A6DD" stroke-width="2"/>
</g>
</svg>
