<svg width="190" height="190" viewBox="0 0 190 190" fill="none" xmlns="http://www.w3.org/2000/svg">
<g id="QR Code">
<g clip-path="url(#clip0_3_33230)">
<path id="Vector" d="M180 20V10H170H20H10V20V170V180H20H170H180V170V20Z" fill="white" stroke="#00A6DD" stroke-width="20"/>
<g id="Vector_2">
<path d="M35.625 29.375H29.375V35.625H35.625V29.375Z" fill="black"/>
<path d="M41.875 29.375H35.625V35.625H41.875V29.375Z" fill="black"/>
<path d="M48.125 29.375H41.875V35.625H48.125V29.375Z" fill="black"/>
<path d="M54.375 29.375H48.125V35.625H54.375V29.375Z" fill="black"/>
<path d="M60.625 29.375H54.375V35.625H60.625V29.375Z" fill="black"/>
<path d="M66.875 29.375H60.625V35.625H66.875V29.375Z" fill="black"/>
<path d="M73.125 29.375H66.875V35.625H73.125V29.375Z" fill="black"/>
<path d="M85.625 29.375H79.375V35.625H85.625V29.375Z" fill="black"/>
<path d="M98.125 29.375H91.875V35.625H98.125V29.375Z" fill="black"/>
<path d="M104.375 29.375H98.125V35.625H104.375V29.375Z" fill="black"/>
<path d="M123.125 29.375H116.875V35.625H123.125V29.375Z" fill="black"/>
<path d="M129.375 29.375H123.125V35.625H129.375V29.375Z" fill="black"/>
<path d="M135.625 29.375H129.375V35.625H135.625V29.375Z" fill="black"/>
<path d="M141.875 29.375H135.625V35.625H141.875V29.375Z" fill="black"/>
<path d="M148.125 29.375H141.875V35.625H148.125V29.375Z" fill="black"/>
<path d="M154.375 29.375H148.125V35.625H154.375V29.375Z" fill="black"/>
<path d="M160.625 29.375H154.375V35.625H160.625V29.375Z" fill="black"/>
<path d="M35.625 35.625H29.375V41.875H35.625V35.625Z" fill="black"/>
<path d="M73.125 35.625H66.875V41.875H73.125V35.625Z" fill="black"/>
<path d="M98.125 35.625H91.875V41.875H98.125V35.625Z" fill="black"/>
<path d="M110.625 35.625H104.375V41.875H110.625V35.625Z" fill="black"/>
<path d="M123.125 35.625H116.875V41.875H123.125V35.625Z" fill="black"/>
<path d="M160.625 35.625H154.375V41.875H160.625V35.625Z" fill="black"/>
<path d="M35.625 41.875H29.375V48.125H35.625V41.875Z" fill="black"/>
<path d="M48.125 41.875H41.875V48.125H48.125V41.875Z" fill="black"/>
<path d="M54.375 41.875H48.125V48.125H54.375V41.875Z" fill="black"/>
<path d="M60.625 41.875H54.375V48.125H60.625V41.875Z" fill="black"/>
<path d="M73.125 41.875H66.875V48.125H73.125V41.875Z" fill="black"/>
<path d="M110.625 41.875H104.375V48.125H110.625V41.875Z" fill="black"/>
<path d="M123.125 41.875H116.875V48.125H123.125V41.875Z" fill="black"/>
<path d="M135.625 41.875H129.375V48.125H135.625V41.875Z" fill="black"/>
<path d="M141.875 41.875H135.625V48.125H141.875V41.875Z" fill="black"/>
<path d="M148.125 41.875H141.875V48.125H148.125V41.875Z" fill="black"/>
<path d="M160.625 41.875H154.375V48.125H160.625V41.875Z" fill="black"/>
<path d="M35.625 48.125H29.375V54.375H35.625V48.125Z" fill="black"/>
<path d="M48.125 48.125H41.875V54.375H48.125V48.125Z" fill="black"/>
<path d="M54.375 48.125H48.125V54.375H54.375V48.125Z" fill="black"/>
<path d="M60.625 48.125H54.375V54.375H60.625V48.125Z" fill="black"/>
<path d="M73.125 48.125H66.875V54.375H73.125V48.125Z" fill="black"/>
<path d="M91.875 48.125H85.625V54.375H91.875V48.125Z" fill="black"/>
<path d="M98.125 48.125H91.875V54.375H98.125V48.125Z" fill="black"/>
<path d="M110.625 48.125H104.375V54.375H110.625V48.125Z" fill="black"/>
<path d="M123.125 48.125H116.875V54.375H123.125V48.125Z" fill="black"/>
<path d="M135.625 48.125H129.375V54.375H135.625V48.125Z" fill="black"/>
<path d="M141.875 48.125H135.625V54.375H141.875V48.125Z" fill="black"/>
<path d="M148.125 48.125H141.875V54.375H148.125V48.125Z" fill="black"/>
<path d="M160.625 48.125H154.375V54.375H160.625V48.125Z" fill="black"/>
<path d="M35.625 54.375H29.375V60.625H35.625V54.375Z" fill="black"/>
<path d="M48.125 54.375H41.875V60.625H48.125V54.375Z" fill="black"/>
<path d="M54.375 54.375H48.125V60.625H54.375V54.375Z" fill="black"/>
<path d="M60.625 54.375H54.375V60.625H60.625V54.375Z" fill="black"/>
<path d="M73.125 54.375H66.875V60.625H73.125V54.375Z" fill="black"/>
<path d="M85.625 54.375H79.375V60.625H85.625L85.625 54.375Z" fill="black"/>
<path d="M123.125 54.375H116.875V60.625H123.125V54.375Z" fill="black"/>
<path d="M135.625 54.375H129.375V60.625H135.625V54.375Z" fill="black"/>
<path d="M141.875 54.375H135.625V60.625H141.875V54.375Z" fill="black"/>
<path d="M148.125 54.375H141.875V60.625H148.125V54.375Z" fill="black"/>
<path d="M160.625 54.375H154.375V60.625H160.625V54.375Z" fill="black"/>
<path d="M35.625 60.625H29.375V66.875H35.625V60.625Z" fill="black"/>
<path d="M73.125 60.625H66.875V66.875H73.125V60.625Z" fill="black"/>
<path d="M91.875 60.625H85.625L85.625 66.875H91.875V60.625Z" fill="black"/>
<path d="M98.125 60.625H91.875V66.875H98.125V60.625Z" fill="black"/>
<path d="M123.125 60.625H116.875V66.875H123.125V60.625Z" fill="black"/>
<path d="M160.625 60.625H154.375V66.875H160.625V60.625Z" fill="black"/>
<path d="M35.625 66.875H29.375V73.125H35.625V66.875Z" fill="black"/>
<path d="M41.875 66.875H35.625V73.125H41.875V66.875Z" fill="black"/>
<path d="M48.125 66.875H41.875V73.125H48.125V66.875Z" fill="black"/>
<path d="M54.375 66.875H48.125V73.125H54.375V66.875Z" fill="black"/>
<path d="M60.625 66.875H54.375V73.125H60.625V66.875Z" fill="black"/>
<path d="M66.875 66.875H60.625V73.125H66.875V66.875Z" fill="black"/>
<path d="M73.125 66.875H66.875V73.125H73.125V66.875Z" fill="black"/>
<path d="M85.625 66.875H79.375V73.125H85.625L85.625 66.875Z" fill="black"/>
<path d="M98.125 66.875H91.875L91.875 73.125H98.125V66.875Z" fill="black"/>
<path d="M110.625 66.875H104.375V73.125H110.625V66.875Z" fill="black"/>
<path d="M123.125 66.875H116.875V73.125H123.125V66.875Z" fill="black"/>
<path d="M129.375 66.875H123.125V73.125H129.375V66.875Z" fill="black"/>
<path d="M135.625 66.875H129.375V73.125H135.625V66.875Z" fill="black"/>
<path d="M141.875 66.875H135.625V73.125H141.875V66.875Z" fill="black"/>
<path d="M148.125 66.875H141.875V73.125H148.125V66.875Z" fill="black"/>
<path d="M154.375 66.875H148.125V73.125H154.375V66.875Z" fill="black"/>
<path d="M160.625 66.875H154.375V73.125H160.625V66.875Z" fill="black"/>
<path d="M85.625 73.125H79.375V79.375H85.625V73.125Z" fill="black"/>
<path d="M91.875 73.125H85.625V79.375H91.875L91.875 73.125Z" fill="black"/>
<path d="M35.625 79.375H29.375V85.625H35.625V79.375Z" fill="black"/>
<path d="M54.375 79.375H48.125V85.625H54.375V79.375Z" fill="black"/>
<path d="M60.625 79.375H54.375V85.625H60.625V79.375Z" fill="black"/>
<path d="M66.875 79.375H60.625V85.625H66.875V79.375Z" fill="black"/>
<path d="M73.125 79.375H66.875V85.625H73.125V79.375Z" fill="black"/>
<path d="M79.375 79.375L73.125 79.375V85.625H79.375L79.375 79.375Z" fill="black"/>
<path d="M85.625 79.375H79.375L79.375 85.625H85.625V79.375Z" fill="black"/>
<path d="M91.875 79.375H85.625V85.625H91.875V79.375Z" fill="black"/>
<path d="M116.875 79.375H110.625V85.625H116.875V79.375Z" fill="black"/>
<path d="M123.125 79.375H116.875V85.625H123.125V79.375Z" fill="black"/>
<path d="M135.625 79.375H129.375V85.625H135.625V79.375Z" fill="black"/>
<path d="M160.625 79.375H154.375V85.625H160.625V79.375Z" fill="black"/>
<path d="M35.625 85.625H29.375V91.875H35.625V85.625Z" fill="black"/>
<path d="M41.875 85.625L35.625 85.625V91.875H41.875V85.625Z" fill="black"/>
<path d="M48.125 85.625L41.875 85.625V91.875H48.125V85.625Z" fill="black"/>
<path d="M54.375 85.625H48.125V91.875H54.375V85.625Z" fill="black"/>
<path d="M66.875 85.625H60.625V91.875H66.875V85.625Z" fill="black"/>
<path d="M79.375 85.625H73.125V91.875H79.375V85.625Z" fill="black"/>
<path d="M85.625 85.625H79.375V91.875H85.625V85.625Z" fill="black"/>
<path d="M91.875 85.625H85.625V91.875H91.875V85.625Z" fill="black"/>
<path d="M98.125 85.625L91.875 85.625V91.875H98.125V85.625Z" fill="black"/>
<path d="M104.375 85.625H98.125V91.875H104.375V85.625Z" fill="black"/>
<path d="M123.125 85.625H116.875V91.875H123.125V85.625Z" fill="black"/>
<path d="M135.625 85.625H129.375V91.875H135.625V85.625Z" fill="black"/>
<path d="M141.875 85.625L135.625 85.625V91.875H141.875V85.625Z" fill="black"/>
<path d="M154.375 85.625L148.125 85.625V91.875H154.375V85.625Z" fill="black"/>
<path d="M160.625 85.625H154.375V91.875H160.625V85.625Z" fill="black"/>
<path d="M41.875 91.875H35.625V98.125H41.875V91.875Z" fill="black"/>
<path d="M48.125 91.875H41.875V98.125H48.125V91.875Z" fill="black"/>
<path d="M54.375 91.875H48.125V98.125H54.375V91.875Z" fill="black"/>
<path d="M66.875 91.875H60.625V98.125H66.875V91.875Z" fill="black"/>
<path d="M73.125 91.875H66.875V98.125H73.125V91.875Z" fill="black"/>
<path d="M79.375 91.875H73.125V98.125H79.375V91.875Z" fill="black"/>
<path d="M98.125 91.875H91.875L91.875 98.125H98.125V91.875Z" fill="black"/>
<path d="M104.375 91.875H98.125V98.125H104.375V91.875Z" fill="black"/>
<path d="M123.125 91.875H116.875V98.125H123.125V91.875Z" fill="black"/>
<path d="M129.375 91.875H123.125V98.125H129.375V91.875Z" fill="black"/>
<path d="M154.375 91.875H148.125V98.125H154.375V91.875Z" fill="black"/>
<path d="M160.625 91.875H154.375V98.125H160.625V91.875Z" fill="black"/>
<path d="M41.875 98.125H35.625V104.375H41.875V98.125Z" fill="black"/>
<path d="M54.375 98.125H48.125V104.375H54.375V98.125Z" fill="black"/>
<path d="M66.875 98.125H60.625V104.375H66.875V98.125Z" fill="black"/>
<path d="M79.375 98.125H73.125V104.375H79.375V98.125Z" fill="black"/>
<path d="M85.625 98.125L79.375 98.125V104.375H85.625V98.125Z" fill="black"/>
<path d="M91.875 98.125L85.625 98.125V104.375H91.875L91.875 98.125Z" fill="black"/>
<path d="M98.125 98.125H91.875L91.875 104.375H98.125V98.125Z" fill="black"/>
<path d="M129.375 98.125H123.125V104.375H129.375V98.125Z" fill="black"/>
<path d="M135.625 98.125L129.375 98.125V104.375H135.625V98.125Z" fill="black"/>
<path d="M141.875 98.125H135.625V104.375H141.875V98.125Z" fill="black"/>
<path d="M148.125 98.125L141.875 98.125V104.375H148.125V98.125Z" fill="black"/>
<path d="M41.875 104.375H35.625V110.625H41.875V104.375Z" fill="black"/>
<path d="M54.375 104.375H48.125V110.625H54.375V104.375Z" fill="black"/>
<path d="M60.625 104.375H54.375V110.625H60.625V104.375Z" fill="black"/>
<path d="M73.125 104.375H66.875V110.625H73.125V104.375Z" fill="black"/>
<path d="M79.375 104.375H73.125V110.625H79.375V104.375Z" fill="black"/>
<path d="M91.875 104.375H85.625L85.625 110.625H91.875V104.375Z" fill="black"/>
<path d="M110.625 104.375H104.375V110.625H110.625V104.375Z" fill="black"/>
<path d="M116.875 104.375H110.625V110.625H116.875V104.375Z" fill="black"/>
<path d="M123.125 104.375H116.875V110.625H123.125V104.375Z" fill="black"/>
<path d="M129.375 104.375H123.125V110.625H129.375V104.375Z" fill="black"/>
<path d="M141.875 104.375H135.625V110.625H141.875V104.375Z" fill="black"/>
<path d="M160.625 104.375H154.375V110.625H160.625V104.375Z" fill="black"/>
<path d="M85.625 110.625H79.375L79.375 116.875H85.625L85.625 110.625Z" fill="black"/>
<path d="M91.875 110.625H85.625L85.625 116.875H91.875V110.625Z" fill="black"/>
<path d="M98.125 110.625H91.875V116.875H98.125V110.625Z" fill="black"/>
<path d="M104.375 110.625H98.125V116.875H104.375V110.625Z" fill="black"/>
<path d="M110.625 110.625H104.375V116.875H110.625V110.625Z" fill="black"/>
<path d="M116.875 110.625H110.625V116.875H116.875V110.625Z" fill="black"/>
<path d="M123.125 110.625H116.875V116.875H123.125V110.625Z" fill="black"/>
<path d="M135.625 110.625H129.375V116.875H135.625V110.625Z" fill="black"/>
<path d="M154.375 110.625H148.125V116.875H154.375V110.625Z" fill="black"/>
<path d="M160.625 110.625H154.375V116.875H160.625V110.625Z" fill="black"/>
<path d="M35.625 116.875H29.375V123.125H35.625V116.875Z" fill="black"/>
<path d="M41.875 116.875H35.625V123.125H41.875V116.875Z" fill="black"/>
<path d="M48.125 116.875H41.875V123.125H48.125V116.875Z" fill="black"/>
<path d="M54.375 116.875H48.125V123.125H54.375V116.875Z" fill="black"/>
<path d="M60.625 116.875H54.375V123.125H60.625V116.875Z" fill="black"/>
<path d="M66.875 116.875H60.625V123.125H66.875V116.875Z" fill="black"/>
<path d="M73.125 116.875H66.875V123.125H73.125V116.875Z" fill="black"/>
<path d="M85.625 116.875H79.375V123.125H85.625V116.875Z" fill="black"/>
<path d="M91.875 116.875H85.625V123.125H91.875V116.875Z" fill="black"/>
<path d="M116.875 116.875H110.625V123.125H116.875V116.875Z" fill="black"/>
<path d="M135.625 116.875H129.375V123.125H135.625V116.875Z" fill="black"/>
<path d="M148.125 116.875H141.875V123.125H148.125V116.875Z" fill="black"/>
<path d="M154.375 116.875H148.125V123.125H154.375V116.875Z" fill="black"/>
<path d="M160.625 116.875H154.375V123.125H160.625V116.875Z" fill="black"/>
<path d="M35.625 123.125H29.375V129.375H35.625V123.125Z" fill="black"/>
<path d="M73.125 123.125H66.875V129.375H73.125V123.125Z" fill="black"/>
<path d="M85.625 123.125H79.375V129.375H85.625V123.125Z" fill="black"/>
<path d="M91.875 123.125H85.625V129.375H91.875V123.125Z" fill="black"/>
<path d="M104.375 123.125H98.125V129.375H104.375V123.125Z" fill="black"/>
<path d="M110.625 123.125H104.375V129.375H110.625V123.125Z" fill="black"/>
<path d="M123.125 123.125H116.875V129.375H123.125V123.125Z" fill="black"/>
<path d="M135.625 123.125H129.375V129.375H135.625V123.125Z" fill="black"/>
<path d="M154.375 123.125H148.125V129.375H154.375V123.125Z" fill="black"/>
<path d="M35.625 129.375H29.375V135.625H35.625V129.375Z" fill="black"/>
<path d="M48.125 129.375H41.875V135.625H48.125V129.375Z" fill="black"/>
<path d="M54.375 129.375H48.125V135.625H54.375V129.375Z" fill="black"/>
<path d="M60.625 129.375H54.375V135.625H60.625V129.375Z" fill="black"/>
<path d="M73.125 129.375H66.875V135.625H73.125V129.375Z" fill="black"/>
<path d="M85.625 129.375H79.375V135.625H85.625V129.375Z" fill="black"/>
<path d="M91.875 129.375H85.625V135.625H91.875V129.375Z" fill="black"/>
<path d="M98.125 129.375H91.875V135.625H98.125L98.125 129.375Z" fill="black"/>
<path d="M110.625 129.375H104.375V135.625H110.625V129.375Z" fill="black"/>
<path d="M116.875 129.375H110.625V135.625H116.875V129.375Z" fill="black"/>
<path d="M123.125 129.375H116.875V135.625H123.125V129.375Z" fill="black"/>
<path d="M141.875 129.375H135.625V135.625H141.875V129.375Z" fill="black"/>
<path d="M148.125 129.375H141.875V135.625H148.125V129.375Z" fill="black"/>
<path d="M35.625 135.625H29.375V141.875H35.625V135.625Z" fill="black"/>
<path d="M48.125 135.625H41.875V141.875H48.125V135.625Z" fill="black"/>
<path d="M54.375 135.625H48.125V141.875H54.375V135.625Z" fill="black"/>
<path d="M60.625 135.625H54.375V141.875H60.625V135.625Z" fill="black"/>
<path d="M73.125 135.625H66.875V141.875H73.125V135.625Z" fill="black"/>
<path d="M85.625 135.625H79.375V141.875H85.625V135.625Z" fill="black"/>
<path d="M91.875 135.625H85.625V141.875H91.875V135.625Z" fill="black"/>
<path d="M98.125 135.625H91.875V141.875H98.125V135.625Z" fill="black"/>
<path d="M104.375 135.625H98.125V141.875H104.375V135.625Z" fill="black"/>
<path d="M116.875 135.625H110.625V141.875H116.875V135.625Z" fill="black"/>
<path d="M123.125 135.625H116.875V141.875H123.125V135.625Z" fill="black"/>
<path d="M141.875 135.625H135.625V141.875H141.875V135.625Z" fill="black"/>
<path d="M160.625 135.625H154.375V141.875H160.625V135.625Z" fill="black"/>
<path d="M35.625 141.875H29.375V148.125H35.625V141.875Z" fill="black"/>
<path d="M48.125 141.875H41.875V148.125H48.125V141.875Z" fill="black"/>
<path d="M54.375 141.875H48.125V148.125H54.375V141.875Z" fill="black"/>
<path d="M60.625 141.875H54.375V148.125H60.625V141.875Z" fill="black"/>
<path d="M73.125 141.875H66.875V148.125H73.125V141.875Z" fill="black"/>
<path d="M91.875 141.875H85.625L85.625 148.125H91.875V141.875Z" fill="black"/>
<path d="M98.125 141.875H91.875V148.125H98.125V141.875Z" fill="black"/>
<path d="M123.125 141.875H116.875V148.125H123.125V141.875Z" fill="black"/>
<path d="M148.125 141.875H141.875V148.125H148.125V141.875Z" fill="black"/>
<path d="M35.625 148.125H29.375V154.375H35.625V148.125Z" fill="black"/>
<path d="M73.125 148.125H66.875V154.375H73.125V148.125Z" fill="black"/>
<path d="M91.875 148.125H85.625V154.375H91.875V148.125Z" fill="black"/>
<path d="M98.125 148.125H91.875V154.375H98.125V148.125Z" fill="black"/>
<path d="M104.375 148.125H98.125V154.375H104.375V148.125Z" fill="black"/>
<path d="M110.625 148.125H104.375V154.375H110.625V148.125Z" fill="black"/>
<path d="M123.125 148.125H116.875V154.375H123.125V148.125Z" fill="black"/>
<path d="M129.375 148.125H123.125V154.375H129.375V148.125Z" fill="black"/>
<path d="M135.625 148.125H129.375V154.375H135.625V148.125Z" fill="black"/>
<path d="M141.875 148.125H135.625V154.375H141.875V148.125Z" fill="black"/>
<path d="M35.625 154.375H29.375V160.625H35.625V154.375Z" fill="black"/>
<path d="M41.875 154.375H35.625V160.625H41.875V154.375Z" fill="black"/>
<path d="M48.125 154.375H41.875V160.625H48.125V154.375Z" fill="black"/>
<path d="M54.375 154.375H48.125V160.625H54.375V154.375Z" fill="black"/>
<path d="M60.625 154.375H54.375V160.625H60.625V154.375Z" fill="black"/>
<path d="M66.875 154.375H60.625V160.625H66.875V154.375Z" fill="black"/>
<path d="M73.125 154.375H66.875V160.625H73.125V154.375Z" fill="black"/>
<path d="M85.625 154.375H79.375V160.625H85.625L85.625 154.375Z" fill="black"/>
<path d="M110.625 154.375H104.375V160.625H110.625V154.375Z" fill="black"/>
<path d="M141.875 154.375H135.625V160.625H141.875V154.375Z" fill="black"/>
<path d="M160.625 154.375H154.375V160.625H160.625V154.375Z" fill="black"/>
</g>
</g>
<rect x="10" y="10" width="170" height="170" rx="26" stroke="#F5F5F5" stroke-opacity="0.5" stroke-width="20"/>
</g>
<defs>
<clipPath id="clip0_3_33230">
<rect x="20" y="20" width="150" height="150" rx="16" fill="white"/>
</clipPath>
</defs>
</svg>
