<svg width="32" height="32" viewBox="0 0 32 32" fill="none" xmlns="http://www.w3.org/2000/svg">
<g id="RIGHT">
<rect id="Rectangle 287" x="31.5" y="31.5" width="31" height="31" rx="15.5" transform="rotate(-180 31.5 31.5)" stroke="#E5E5E5"/>
<path id="Vector" d="M13.625 19.8574L13.625 20.8926C13.625 20.9824 13.7281 21.0319 13.7977 20.977L19.8352 16.2614C19.8865 16.2215 19.9281 16.1704 19.9566 16.112C19.9852 16.0537 20 15.9895 20 15.9246C20 15.8596 19.9852 15.7955 19.9566 15.7371C19.9281 15.6787 19.8865 15.6276 19.8352 15.5877L13.7977 10.8721C13.7268 10.8172 13.625 10.8667 13.625 10.9565L13.625 11.9917C13.625 12.0574 13.6558 12.1203 13.7067 12.1605L18.5281 15.9239L13.7067 19.6886C13.6558 19.7288 13.625 19.7917 13.625 19.8574Z" fill="#171717"/>
</g>
</svg>
