<svg width="20" height="20" viewBox="0 0 20 20" fill="none" xmlns="http://www.w3.org/2000/svg">
<g id="Icon">
<path id="Vector" d="M13.1296 11.8791H12.4712L12.2379 11.6541C13.0546 10.7041 13.5462 9.47074 13.5462 8.12907C13.5462 5.1374 11.1212 2.7124 8.12956 2.7124C5.13789 2.7124 2.71289 5.1374 2.71289 8.12907C2.71289 11.1207 5.13789 13.5457 8.12956 13.5457C9.47122 13.5457 10.7046 13.0541 11.6546 12.2374L11.8796 12.4707V13.1291L16.0462 17.2874L17.2879 16.0457L13.1296 11.8791ZM8.12956 11.8791C6.05456 11.8791 4.37956 10.2041 4.37956 8.12907C4.37956 6.05407 6.05456 4.37907 8.12956 4.37907C10.2046 4.37907 11.8796 6.05407 11.8796 8.12907C11.8796 10.2041 10.2046 11.8791 8.12956 11.8791Z" fill="white"/>
</g>
</svg>
