<svg width="146" height="345" viewBox="0 0 146 345" fill="none" xmlns="http://www.w3.org/2000/svg">
<g clip-path="url(#clip0_1_3)">
<path d="M126.516 256.237C126.516 272.687 139.844 286.023 156.284 286.023C172.724 286.023 186.051 272.687 186.051 256.237C186.051 239.786 172.724 226.45 156.284 226.45C139.844 226.45 126.516 239.786 126.516 256.237Z" fill="#F2DF00"/>
<path d="M9.15527e-05 144.312C9.11107e-05 154.425 8.19317 162.623 18.2998 162.623C28.4065 162.623 36.5996 154.425 36.5996 144.312C36.5996 134.198 28.4065 126 18.2998 126C8.19317 126 9.19948e-05 134.198 9.15527e-05 144.312Z" fill="#52CD18"/>
<path d="M85.1258 220.8C85.1258 227.572 90.6117 233.061 97.3788 233.061C104.146 233.061 109.632 227.572 109.632 220.8C109.632 214.029 104.146 208.54 97.3788 208.54C90.6117 208.54 85.1258 214.029 85.1258 220.8Z" fill="#00A6DD"/>
<path d="M88.927 149.653C88.927 162.147 99.0484 172.275 111.534 172.275C124.019 172.275 134.141 162.147 134.141 149.653C134.141 137.16 124.019 127.032 111.534 127.032C99.0484 127.032 88.927 137.16 88.927 149.653Z" fill="#FF4300"/>
<path d="M111.642 25.6814C111.642 39.8648 123.133 51.3628 137.307 51.3628C151.481 51.3628 162.972 39.8648 162.972 25.6814C162.972 11.4979 151.481 6.19573e-07 137.307 0C123.133 -6.1958e-07 111.642 11.4979 111.642 25.6814Z" fill="#E10AB5"/>
<path d="M28.1381 317.346C28.1381 322.41 32.24 326.514 37.3 326.514C42.36 326.514 46.4619 322.41 46.4619 317.346C46.4619 312.283 42.36 308.178 37.3 308.178C32.24 308.178 28.1381 312.283 28.1381 317.346Z" fill="#E10AB5"/>
<path d="M46.4369 19.5118C46.4369 24.5751 50.5388 28.6797 55.5988 28.6797C60.6588 28.6797 64.7607 24.5751 64.7607 19.5118C64.7607 14.4486 60.6588 10.344 55.5988 10.344C50.5388 10.344 46.4369 14.4486 46.4369 19.5118Z" fill="#F2DF00"/>
<path d="M64.517 104.019C64.517 109.083 68.6189 113.187 73.6789 113.187C78.7389 113.187 82.8408 109.083 82.8408 104.019C82.8408 98.9561 78.7389 94.8516 73.6789 94.8516C68.6189 94.8516 64.517 98.9561 64.517 104.019Z" fill="#FF4300"/>
</g>
<defs>
<clipPath id="clip0_1_3">
<rect width="146" height="345" fill="white"/>
</clipPath>
</defs>
</svg>
