<svg width="25" height="24" viewBox="0 0 25 24" fill="none" xmlns="http://www.w3.org/2000/svg">
<path d="M7.99854 16C8.54854 16 8.99854 16.45 8.99854 17C8.99854 18.1 8.09854 19 6.99854 19C6.82854 19 6.66854 18.98 6.49854 18.95C6.80854 18.4 6.99854 17.74 6.99854 17C6.99854 16.45 7.44853 16 7.99854 16ZM19.6685 3C19.4085 3 19.1585 3.1 18.9585 3.29L9.99854 12.25L12.7485 15L21.7085 6.04C22.0985 5.65 22.0985 5.02 21.7085 4.63L20.3685 3.29C20.1685 3.09 19.9185 3 19.6685 3ZM7.99854 14C6.33854 14 4.99854 15.34 4.99854 17C4.99854 18.31 3.83854 19 2.99854 19C3.91854 20.22 5.48854 21 6.99854 21C9.20854 21 10.9985 19.21 10.9985 17C10.9985 15.34 9.65854 14 7.99854 14Z" fill="white"/>
</svg>
