<svg width="20" height="20" viewBox="0 0 20 20" fill="none" xmlns="http://www.w3.org/2000/svg">
<g id="Icon">
<path id="Vector" d="M13.5337 6.4665C12.5587 5.4915 11.2837 4.99984 10.0003 4.99984V9.99984L6.46699 13.5332C8.41699 15.4832 11.5837 15.4832 13.542 13.5332C15.492 11.5832 15.492 8.4165 13.5337 6.4665ZM10.0003 1.6665C5.40033 1.6665 1.66699 5.39984 1.66699 9.99984C1.66699 14.5998 5.40033 18.3332 10.0003 18.3332C14.6003 18.3332 18.3337 14.5998 18.3337 9.99984C18.3337 5.39984 14.6003 1.6665 10.0003 1.6665ZM10.0003 16.6665C6.31699 16.6665 3.33366 13.6832 3.33366 9.99984C3.33366 6.3165 6.31699 3.33317 10.0003 3.33317C13.6837 3.33317 16.667 6.3165 16.667 9.99984C16.667 13.6832 13.6837 16.6665 10.0003 16.6665Z" fill="white"/>
</g>
</svg>
